<?xml version="1.0" encoding="utf-8"?>
<!-- Generator: Adobe Illustrator 22.0.0, SVG Export Plug-In . SVG Version: 6.00 Build 0)  -->
<svg version="1.1" id="图层_1" xmlns="http://www.w3.org/2000/svg"  x="0px" y="0px"
	 viewBox="0 0 44 44" style="enable-background:new 0 0 44 44;" xml:space="preserve">
<style type="text/css">
	.st0{fill:#00853D;}
</style>
<g>
	<g>
		<path class="st0" d="M22.5,31.6c-6.3,0-11.5-5.2-11.5-11.5c0-0.6,0.4-1,1-1s1,0.4,1,1c0,5.2,4.3,9.5,9.5,9.5s9.5-4.3,9.5-9.5
			c0-0.6,0.4-1,1-1s1,0.4,1,1C34,26.4,28.9,31.6,22.5,31.6z"/>
	</g>
	<g>
		<path class="st0" d="M8.1,43.2c-0.2,0-0.4-0.1-0.6-0.2c-0.5-0.3-0.6-0.9-0.3-1.4c3.3-4.9,8.8-7.9,14.7-7.9h1
			c5.9,0,11.4,2.9,14.7,7.8c0.3,0.5,0.2,1.1-0.3,1.4s-1.1,0.2-1.4-0.3c-3-4.3-7.8-6.9-13.1-6.9h-1c-5.2,0-10.1,2.6-13.1,7
			C8.7,43.1,8.4,43.2,8.1,43.2z"/>
	</g>
	<g>
		<path class="st0" d="M36,20.7H8.6c-3.5,0-5.4-0.7-5.7-2.1c-0.4-1.9,2.5-3.2,3.4-3.7c4.3-2,9.5-7,11.4-10.9
			c1.2-2.4,2.8-3.7,4.6-3.7l0,0c1.8,0,3.4,1.3,4.6,3.7C28.8,8,34,12.9,38.3,14.9c1,0.4,3.9,1.8,3.4,3.7C41.4,20,39.5,20.7,36,20.7z
			 M5,18.2c0.4,0.2,1.4,0.5,3.6,0.5H36c2.2,0,3.3-0.3,3.6-0.5c-0.2-0.2-0.7-0.7-2.2-1.4l0,0c-4.7-2.2-10.2-7.5-12.3-11.8
			c-0.8-1.6-1.8-2.5-2.8-2.5s-2,0.9-2.8,2.5c-2.1,4.3-7.6,9.6-12.3,11.8C5.7,17.4,5.2,17.9,5,18.2z M39.7,18.3L39.7,18.3L39.7,18.3z
			"/>
	</g>
</g>
</svg>
