<?xml version="1.0" encoding="utf-8"?>
<!-- Generator: Adobe Illustrator 22.0.0, SVG Export Plug-In . SVG Version: 6.00 Build 0)  -->
<svg version="1.1" id="图层_1" xmlns="http://www.w3.org/2000/svg"  x="0px" y="0px"
	 viewBox="0 0 44 44" style="enable-background:new 0 0 44 44;" xml:space="preserve">
<style type="text/css">
	.st0{fill:#00853D;}
</style>
<g>
	<g>
		<path class="st0" d="M33.9,42H10.8C7.6,42,5,39.4,5,36.2V18.3c0-0.5,0.4-1,1-1s1,0.4,1,1v17.9c0,2.1,1.7,3.8,3.8,3.8h23.1
			c2.1,0,3.8-1.7,3.8-3.8V18.3c0-0.5,0.4-1,1-1s1,0.4,1,1v17.9C39.7,39.4,37.1,42,33.9,42z"/>
	</g>
	<g>
		<path class="st0" d="M42.7,21.7c-0.3,0-0.5-0.1-0.7-0.3L24.4,3.9c-1.2-1.2-3-1.2-4.2,0L2.7,21.4c-0.4,0.4-1,0.4-1.4,0
			s-0.4-1,0-1.4L18.8,2.4c1.9-1.9,5.1-1.9,7,0L43.4,20c0.4,0.4,0.4,1,0,1.4C43.2,21.6,42.9,21.7,42.7,21.7z"/>
	</g>
	<g>
		<path class="st0" d="M27.1,42c-0.5,0-1-0.4-1-1V30.2c0-2.1-1.7-3.8-3.8-3.8s-3.8,1.7-3.8,3.8V41c0,0.5-0.4,1-1,1c-0.5,0-1-0.4-1-1
			V30.2c0-3.2,2.6-5.8,5.8-5.8c3.2,0,5.8,2.6,5.8,5.8V41C28.1,41.6,27.7,42,27.1,42z"/>
	</g>
</g>
</svg>
