<?xml version="1.0" encoding="utf-8"?>
<!-- Generator: Adobe Illustrator 22.0.0, SVG Export Plug-In . SVG Version: 6.00 Build 0)  -->
<svg version="1.1" id="图层_1" xmlns="http://www.w3.org/2000/svg"  x="0px" y="0px"
	 viewBox="0 0 44 44" style="enable-background:new 0 0 44 44;" xml:space="preserve">
<style type="text/css">
	.st0{fill:#7D7D7F;}
</style>
<g>
	<path class="st0" d="M11.4,42.7c-0.8,0-1.6-0.3-2.3-0.8c-1.1-0.8-1.7-2.2-1.5-3.7L8.9,30c0.2-1.2-0.2-2.5-1-3.4l-5.6-5.9
		c-1-1.1-1.3-2.6-0.9-3.8c0.4-1.4,1.5-2.4,3-2.7l7.9-1.4c1.2-0.2,2.2-1,2.6-2l3.8-7.4c0.7-1.3,1.9-2.1,3.4-2.1
		c1.4,0,2.7,0.8,3.4,2.1l3.8,7.3c0.5,1.1,1.5,1.8,2.7,2.1l7.9,1.4c1.5,0.3,2.6,1.3,3,2.7c0.4,1.5,0.1,2.8-1,3.8l-5.6,5.9
		c-0.8,0.9-1.2,2.2-1,3.4l1.2,8.2c0.2,1.3-0.3,2.7-1.4,3.7L34.9,42c-1.2,0.8-2.5,0.9-3.8,0.4l-7.3-3.7c-1-0.6-2.3-0.5-3.4,0
		l-7.2,3.7C12.6,42.6,12,42.7,11.4,42.7z M34.3,41.1L34.3,41.1L34.3,41.1z M22.1,3.2c-0.7,0-1.3,0.4-1.6,1l-3.8,7.4
		c-0.7,1.6-2.2,2.7-4.1,3.1l-8,1.4c-0.7,0.1-1.2,0.6-1.4,1.3c-0.2,0.7,0,1.4,0.5,2l5.5,5.9c1.2,1.3,1.8,3.2,1.6,5l-1.2,8.3
		c-0.1,0.8,0.1,1.4,0.7,1.8c0.6,0.5,1.2,0.6,1.9,0.2l7.2-3.7c1.7-0.8,3.6-0.8,5.2,0l7.2,3.7c0.6,0.2,1.2,0.2,1.8-0.2
		c0.4-0.3,0.9-1,0.7-1.8l-1.2-8.3c-0.2-1.8,0.4-3.7,1.5-5l0,0l5.7-6c0.5-0.5,0.7-1.1,0.5-1.9c-0.2-0.7-0.7-1.1-1.4-1.3l-7.9-1.4
		c-1.8-0.4-3.3-1.5-4.1-3.1l-3.8-7.3C23.4,3.6,22.8,3.2,22.1,3.2z"/>
</g>
</svg>
